<svg width="339" height="58" viewBox="0 0 339 58" fill="none" xmlns="http://www.w3.org/2000/svg">
<path d="M3.67227 50V7.74827H31.6475V15.1134H12.6054V25.1812H29.7908V32.5464H12.6054V50H3.67227ZM46.5893 7.74827V50H37.6562V7.74827H46.5893ZM52.3298 15.1134V7.74827H87.0307V15.1134H74.0953V50H65.2653V15.1134H52.3298Z" fill="#D00303"/>
<path d="M116.593 19.8998C116.428 18.2356 115.72 16.9427 114.468 16.0212C113.216 15.0997 111.518 14.6389 109.372 14.6389C107.914 14.6389 106.683 14.8452 105.679 15.2579C104.675 15.6567 103.905 16.2137 103.369 16.9289C102.846 17.6441 102.585 18.4556 102.585 19.3634C102.557 20.1198 102.715 20.78 103.059 21.3439C103.417 21.9078 103.905 22.3961 104.524 22.8087C105.143 23.2076 105.858 23.5583 106.67 23.8609C107.481 24.1497 108.348 24.3973 109.269 24.6036L113.065 25.5113C114.908 25.9239 116.6 26.4741 118.14 27.1618C119.681 27.8495 121.015 28.6953 122.143 29.6994C123.27 30.7034 124.144 31.8862 124.763 33.2478C125.395 34.6095 125.719 36.1705 125.732 37.931C125.719 40.5167 125.058 42.7586 123.752 44.6566C122.459 46.5409 120.588 48.0057 118.14 49.051C115.706 50.0825 112.769 50.5983 109.331 50.5983C105.92 50.5983 102.949 50.0756 100.419 49.0304C97.9016 47.9851 95.9348 46.4378 94.5181 44.3884C93.1152 42.3254 92.3794 39.774 92.3106 36.7344H100.955C101.051 38.1511 101.457 39.3339 102.172 40.2829C102.901 41.2182 103.871 41.9265 105.081 42.4079C106.305 42.8755 107.687 43.1093 109.228 43.1093C110.741 43.1093 112.054 42.8893 113.168 42.4492C114.296 42.009 115.169 41.397 115.788 40.613C116.407 39.8291 116.717 38.9282 116.717 37.9104C116.717 36.9614 116.435 36.1637 115.871 35.5172C115.321 34.8708 114.509 34.3206 113.437 33.8668C112.377 33.4129 111.078 33.0003 109.537 32.6289L104.937 31.4736C101.374 30.6071 98.5618 29.2524 96.4987 27.4094C94.4356 25.5663 93.4109 23.0838 93.4247 19.9617C93.4109 17.4034 94.0918 15.1685 95.4671 13.2567C96.8563 11.3449 98.7612 9.8526 101.182 8.7798C103.603 7.70701 106.353 7.17061 109.434 7.17061C112.57 7.17061 115.307 7.70701 117.645 8.7798C119.997 9.8526 121.826 11.3449 123.133 13.2567C124.44 15.1685 125.113 17.3828 125.155 19.8998H116.593ZM130.132 15.1134V7.74827H164.833V15.1134H151.897V50H143.067V15.1134H130.132ZM170.548 50V7.74827H187.217C190.408 7.74827 193.131 8.31905 195.387 9.46062C197.656 10.5884 199.382 12.1908 200.565 14.2676C201.762 16.3307 202.36 18.7582 202.36 21.5502C202.36 24.356 201.755 26.7698 200.545 28.7916C199.334 30.7997 197.581 32.3401 195.284 33.4129C193.001 34.4857 190.236 35.0221 186.99 35.0221H175.829V27.8426H185.546C187.252 27.8426 188.668 27.6088 189.796 27.1412C190.924 26.6735 191.763 25.9721 192.313 25.0368C192.877 24.1016 193.159 22.9394 193.159 21.5502C193.159 20.1473 192.877 18.9645 192.313 18.0017C191.763 17.039 190.917 16.31 189.775 15.8149C188.648 15.306 187.224 15.0515 185.505 15.0515H179.481V50H170.548ZM193.365 30.7722L203.866 50H194.005L183.731 30.7722H193.365Z" fill="white"/>
<g clip-path="url(#clip0_99_211)">
<path d="M251.236 45.8307L244.762 19.934C244.425 18.5875 243.305 17.654 242.026 17.654H236.685C237.001 16.7631 237.206 15.8172 237.206 14.8173C237.206 10.1172 233.396 6.30713 228.696 6.30713C223.995 6.30713 220.185 10.1172 220.185 14.8173C220.185 15.8172 220.389 16.7631 220.707 17.654H215.366C214.086 17.654 212.965 18.5884 212.629 19.934L206.153 45.8307C205.415 48.7835 207.453 51.6938 210.259 51.6938H247.132C249.936 51.6938 251.974 48.7835 251.236 45.8307ZM228.695 17.6531C227.131 17.6531 225.858 16.3802 225.858 14.8164C225.858 13.2527 227.131 11.9797 228.695 11.9797C230.258 11.9797 231.531 13.2527 231.531 14.8164C231.531 16.3802 230.258 17.6531 228.695 17.6531Z" fill="#D00303"/>
</g>
<path d="M290.4 7.74827V50H282.685L264.303 23.407H263.993V50H255.06V7.74827H262.9L281.137 34.3206H281.509V7.74827H290.4ZM325.798 21.4058C325.509 20.4018 325.103 19.5147 324.58 18.7444C324.058 17.9605 323.418 17.3003 322.662 16.7639C321.919 16.2137 321.066 15.7943 320.103 15.5054C319.154 15.2166 318.102 15.0722 316.947 15.0722C314.788 15.0722 312.89 15.6086 311.253 16.6814C309.63 17.7542 308.365 19.3152 307.457 21.3645C306.549 23.4001 306.095 25.8896 306.095 28.8329C306.095 31.7762 306.542 34.2794 307.436 36.3425C308.33 38.4055 309.596 39.9803 311.232 41.0669C312.869 42.1397 314.801 42.6761 317.03 42.6761C319.051 42.6761 320.777 42.3185 322.208 41.6033C323.652 40.8743 324.752 39.8497 325.509 38.5293C326.279 37.2089 326.664 35.6479 326.664 33.8461L328.48 34.1143H317.587V27.3887H335.267V32.7114C335.267 36.425 334.483 39.6159 332.915 42.2841C331.347 44.9386 329.188 46.9879 326.437 48.4321C323.686 49.8625 320.537 50.5777 316.988 50.5777C313.027 50.5777 309.547 49.7043 306.549 47.9576C303.551 46.1971 301.213 43.7008 299.535 40.4686C297.87 37.2227 297.038 33.3716 297.038 28.9154C297.038 25.4907 297.533 22.4373 298.524 19.7554C299.528 17.0596 300.931 14.7765 302.732 12.906C304.534 11.0354 306.632 9.61191 309.025 8.63539C311.418 7.65887 314.011 7.17061 316.803 7.17061C319.196 7.17061 321.424 7.52133 323.487 8.22277C325.55 8.91047 327.379 9.88699 328.975 11.1523C330.584 12.4177 331.897 13.9237 332.915 15.6705C333.933 17.4034 334.586 19.3152 334.875 21.4058H325.798Z" fill="white"/>
<defs>
<clipPath id="clip0_99_211">
<rect width="45.3876" height="45.3876" fill="white" transform="translate(206 6.30615)"/>
</clipPath>
</defs>
</svg>
