<svg width="64" height="64" viewBox="0 0 64 64" fill="none" xmlns="http://www.w3.org/2000/svg">
<rect width="63.3487" height="63.3482" rx="10" fill="#1C1C1C"/>
<path d="M47.2434 43.2986L42.7719 25.412C42.5393 24.4819 41.7653 23.8372 40.8818 23.8372H37.1928C37.4114 23.2219 37.5529 22.5686 37.5529 21.8779C37.5529 18.6316 34.9213 16 31.675 16C28.4286 16 25.7971 18.6316 25.7971 21.8779C25.7971 22.5686 25.9379 23.2219 26.1571 23.8372H22.4681C21.5846 23.8372 20.81 24.4825 20.578 25.412L16.1053 43.2986C15.5952 45.3381 17.0029 47.3482 18.9407 47.3482H44.4086C46.3458 47.3482 47.7535 45.3381 47.2434 43.2986ZM31.6743 23.8366C30.5943 23.8366 29.715 22.9573 29.715 21.8773C29.715 20.7972 30.5943 19.918 31.6743 19.918C32.7544 19.918 33.6336 20.7972 33.6336 21.8773C33.6336 22.9573 32.7544 23.8366 31.6743 23.8366Z" fill="#D00303"/>
</svg>
